<?xml version="1.0" encoding="utf-8"?>
<!-- Generator: Adobe Illustrator 21.0.0, SVG Export Plug-In . SVG Version: 6.00 Build 0)  -->
<svg version="1.1" id="Layer_1" xmlns="http://www.w3.org/2000/svg" xmlns:xlink="http://www.w3.org/1999/xlink" x="0px" y="0px"
	 width="48px" height="48px" viewBox="0 0 48 48" style="enable-background:new 0 0 48 48;" xml:space="preserve">
<style type="text/css">
	.st0{fill:#104BB5;}
</style>
<path class="st0" d="M43,43H5c-2.2,0-4-1.8-4-4V9c0-2.2,1.8-4,4-4h38c2.2,0,4,1.8,4,4v30C47,41.2,45.2,43,43,43z M45,9
	c0-1.1-0.9-2-2-2H5C3.9,7,3,7.9,3,9v6h42V9z M45,17H3v22c0,1.1,0.9,2,2,2h38c1.1,0,2-0.9,2-2V17z M41,31h-2c-0.6,0-1-0.4-1-1v-2
	c0-0.6,0.4-1,1-1h2c0.6,0,1,0.4,1,1v2C42,30.6,41.6,31,41,31z M41,24h-2c-0.6,0-1-0.4-1-1v-2c0-0.6,0.4-1,1-1h2c0.6,0,1,0.4,1,1v2
	C42,23.6,41.6,24,41,24z M33,31h-2c-0.6,0-1-0.4-1-1v-2c0-0.6,0.4-1,1-1h2c0.6,0,1,0.4,1,1v2C34,30.6,33.6,31,33,31z M33,24h-2
	c-0.6,0-1-0.4-1-1v-2c0-0.6,0.4-1,1-1h2c0.6,0,1,0.4,1,1v2C34,23.6,33.6,24,33,24z M25,31h-2c-0.6,0-1-0.4-1-1v-2c0-0.6,0.4-1,1-1h2
	c0.6,0,1,0.4,1,1v2C26,30.6,25.6,31,25,31z M25,24h-2c-0.6,0-1-0.4-1-1v-2c0-0.6,0.4-1,1-1h2c0.6,0,1,0.4,1,1v2
	C26,23.6,25.6,24,25,24z M17,38h-2c-0.6,0-1-0.4-1-1v-2c0-0.6,0.4-1,1-1h2c0.6,0,1,0.4,1,1v2C18,37.6,17.6,38,17,38z M17,31h-2
	c-0.6,0-1-0.4-1-1v-2c0-0.6,0.4-1,1-1h2c0.6,0,1,0.4,1,1v2C18,30.6,17.6,31,17,31z M17,24h-2c-0.6,0-1-0.4-1-1v-2c0-0.6,0.4-1,1-1h2
	c0.6,0,1,0.4,1,1v2C18,23.6,17.6,24,17,24z M9,38H7c-0.6,0-1-0.4-1-1v-2c0-0.6,0.4-1,1-1h2c0.6,0,1,0.4,1,1v2C10,37.6,9.6,38,9,38z
	 M9,31H7c-0.6,0-1-0.4-1-1v-2c0-0.6,0.4-1,1-1h2c0.6,0,1,0.4,1,1v2C10,30.6,9.6,31,9,31z M23,34h2c0.6,0,1,0.4,1,1v2
	c0,0.6-0.4,1-1,1h-2c-0.6,0-1-0.4-1-1v-2C22,34.4,22.4,34,23,34z"/>
</svg>
