<?xml version="1.0" encoding="utf-8"?>
<!-- Generator: Adobe Illustrator 21.0.0, SVG Export Plug-In . SVG Version: 6.00 Build 0)  -->
<svg version="1.1" id="Layer_1" xmlns="http://www.w3.org/2000/svg" xmlns:xlink="http://www.w3.org/1999/xlink" x="0px" y="0px"
	 width="307.1px" height="143.6px" viewBox="0 0 307.1 143.6" style="enable-background:new 0 0 307.1 143.6;" xml:space="preserve"
	>
<style type="text/css">
	.st0{opacity:0.2;}
	.st1{fill:#8EB3B7;}
	.st2{opacity:0.2;fill:#8EB3B7;}
	.st3{fill:#2A52A4;}
</style>
<g>
	<g>
		<g>
			<g class="st0">
				<g>
					<path class="st1" d="M42.5,101.3c0.2,0,1.2,0,1.4,0c22.4,0,35.5-15.4,34.2-36.4L77,64.9c-7.2,0.4-11,0.4-18.7,0.3
						c-0.5,13.3-9.1,15.1-15.1,15.2c-5.9-0.2-17.7-2.5-17.7-17.2l0.5,0.1c-7.2-0.7-11.5-1.3-19.2-2.4v4.4
						C6.8,87.8,20.2,101.3,42.5,101.3z"/>
				</g>
				<g>
					<path class="st1" d="M251.4,88.2C240.6,80.7,229.3,77,217,77c-7.9,0-15.3,1.5-21.8,2.8c-4,0.8-7.7,1.5-11.1,1.9
						c-0.7,0.1-1.4,0.1-2.1,0.1c-8.7,0-17-5.6-20.4-13.1h51.2c2.3,0,4.3-1.8,4.5-4.1c0.2-1.4,0.3-3.2,0.3-4.5
						c0-10.4-3.5-19.4-8.4-26.4c-6.7,2.4-11.7,4.5-19.2,7.2c4.3,2.3,5.4,6.6,6.5,10.2c0,0-34.6-0.5-34.4-0.9
						c-8.1,2.5-15,4.4-24.1,6.5c-0.1,1-0.1,3.5-0.1,4.5c-0.9-0.9-2.9-2.9-3.9-3.6c-14.5,3.2-28.8,4.9-46.1,6.2
						c6.2,3.4,13.3,5.3,19.4,6.3c8.6,1.4,14.2,2.6,14.2,5.5c0,1.3,0,5.3-12.7,5.3c-9,0-15.1-1.5-20.1-5.1C88,75,87,74.7,86.1,74.7
						c-0.4,0-0.7,0-1.1,0.1c-1.3,0.3-2.4,1.1-3,2.3l-5.5,10.4c-1,1.9-0.5,4.3,1.2,5.7c6.7,5.3,16.6,7.9,30.1,7.9
						c19.1,0,32.7-8.4,35.6-21c7.1,12.5,20.5,20.8,37.8,20.8c8.8,0,15.7-2.2,22.4-4.3c6.8-2.1,13.2-4.2,21.7-4.2
						c6.6,0,13.8,1.2,21.9,3.8c3.8,1,9,3.1,10.8,0.6C259.9,94.4,253.2,89.5,251.4,88.2z"/>
				</g>
			</g>
			<path class="st2" d="M285.9,22.8c-3-2.8-17.4-7.3-17.4-7.2c0,0,0,0,0,0.1l-5.8,6.6L241,45.9c-1,1.1-1.7,2.4-2.1,3.8
				c0,0-6.1,20.6-6.1,21.4c0.2,4.2,5.2,7.1,9.4,7c0.8,0,2.4-0.5,2.5-0.5l18.3-5.6c1.4-0.5,2.6-1.3,3.6-2.4c0,0,22.4-23.4,25.4-30.4
				C292.8,37.8,289.2,25.8,285.9,22.8z M264.2,62.2c-0.2,4.9-11.7,9.7-12.5,7.5c-2.3-7.2-8.3-12.3-12.5-11.8
				c-3.4,0.4,1.5-11.2,3.1-12.1c4.4-2.5,10.1-1.1,14.7,0.9C262.4,48.9,264.3,60.2,264.2,62.2z"/>
		</g>
		<path class="st3" d="M109.4,21.6c9.4,0,20.1,2.5,26.4,6.6l-5.6,10.4c-6.6-4.2-13.8-5.7-20.9-5.7c-11.5,0-17.1,4.2-17.1,10
			c0,17.1,46,3.1,46,31.3c0,13.1-12,21.5-31.3,21.5c-12,0-21.3-2.2-27.3-6.9l5.5-10.4c6.2,4.4,13.3,6,22.8,6
			c12.2,0,17.2-3.7,17.2-9.9c0-16.3-45.8-2.2-45.8-31.1C79.1,30.4,90.8,21.6,109.4,21.6 M109.4,17.1c-20.8,0-34.8,10.6-34.8,26.3
			c0,20.4,19,23.5,31.6,25.6c8.6,1.4,14.2,2.6,14.2,5.5c0,1.3,0,5.3-12.7,5.3c-9,0-15.1-1.5-20.1-5.1c-0.8-0.6-1.7-0.8-2.6-0.8
			c-0.4,0-0.7,0-1.1,0.1c-1.3,0.3-2.4,1.1-3,2.3l-5.5,10.4c-1,1.9-0.5,4.3,1.2,5.7c6.7,5.3,16.6,7.9,30.1,7.9
			c21.8,0,35.9-10.2,35.9-26c0-19.7-17.9-22.8-31-25.1c-9.3-1.6-14.9-2.8-14.9-6.3c0-4,6.8-5.4,12.5-5.4c7.1,0,13.3,1.7,18.5,5
			c0.7,0.5,1.6,0.7,2.5,0.7c0.4,0,0.8,0,1.1-0.1c1.2-0.3,2.3-1.1,2.9-2.3l5.6-10.4c1.1-2.1,0.5-4.7-1.5-6
			C131.5,19.9,120.1,17.1,109.4,17.1L109.4,17.1z"/>
		<path class="st3" d="M177.6,21.7c20.9,0,34.2,15,34.2,37.3c0,1.1-0.1,2.7-0.3,4h-57.2c1.5,12,13.2,22.3,26.5,22.3
			c0.8,0,1.7,0,2.5-0.1c9.5-0.9,20.3-4.6,32.4-4.6c9.7,0,20.3,2.4,31.8,10.4c-9.3-2.9-16.8-4-23.2-4c-18,0-27.6,8.5-44.2,8.5
			c-23.4,0-38.9-15.1-38.9-36.8C141.3,37.2,156.7,21.7,177.6,21.7 M154.4,53.6h44.9c-1.4-12.2-8.9-20.8-21.6-20.8
			C165.1,32.8,155.8,41.3,154.4,53.6 M177.6,17.2c-23.7,0-40.9,17.5-40.9,41.5c0,24.3,17.9,41.3,43.5,41.3c8.8,0,15.7-2.2,22.4-4.3
			c6.8-2.1,13.2-4.2,21.7-4.2c6.6,0,13.8,1.2,21.9,3.8c3.8,1,9,3.1,10.8,0.6c1.8-2.5-4.9-7.4-6.8-8.7c-10.8-7.6-22-11.3-34.4-11.3
			c-7.9,0-15.3,1.5-21.8,2.8c-4,0.8-7.7,1.5-11.1,1.9c-0.7,0.1-1.4,0.1-2.1,0.1c-8.7,0-17-5.6-20.4-13.1h51.2c2.3,0,4.3-1.8,4.5-4.1
			c0.2-1.4,0.3-3.2,0.3-4.5C216.4,34,200.8,17.2,177.6,17.2L177.6,17.2z M160.1,49c2.7-7.2,9.1-11.7,17.5-11.7
			c10.1,0,14.3,6.3,16,11.7H160.1L160.1,49z"/>
		<path class="st3" d="M74,25.6v38.5c0,21.3-12.5,31.6-31.2,31.6c-0.2,0-1.2,0-1.4,0c-18.7,0-31.2-10.3-31.2-31.6V25.6h13.1v37
			c0,13.9,6.8,21,18.8,21.3c11.9-0.3,18.8-7.4,18.8-21.3v-37H74 M74,21.1H60.9c-2.5,0-4.6,2-4.6,4.6v37c0,14.7-8.2,16.6-14.3,16.7
			c-5.9-0.2-14.1-2.1-14.1-16.7v-37c0-2.5-2-4.6-4.6-4.6H10.2c-2.5,0-4.6,2-4.6,4.6v38.5c0,22.6,13.4,36.2,35.8,36.2
			c0.2,0,1.2,0,1.4,0c22.4,0,35.8-13.5,35.8-36.2V25.6C78.6,23.1,76.5,21.1,74,21.1L74,21.1z"/>
		<path id="pen" class="st3" d="M296,8.3c-3.9-3.6-8.8-5.5-13.6-5.3c-4.1,0.2-7.7,1.8-10.4,4.7l-10.5,11.5c0,0-0.1,0.1-0.1,0.1
			c0,0,0,0,0,0.1l0,0L239,43.8c-1,1.1-1.8,2.5-2.1,3.9l-4.5,19.4c0,0.1-0.3,1.6-0.3,2.3c0.2,4.4,3.9,7.8,8.2,7.6
			c0.9,0,2.5-0.5,2.6-0.5l18.9-5.8c1.4-0.5,2.7-1.3,3.8-2.4l33-36.1C304.6,25.6,303.5,15.1,296,8.3z M267.8,57.4
			c-0.3-2-0.9-4-1.9-5.9l20.5-22.2c1.5,4.1,1,8.4-1.8,11.4c0,0,0,0-0.1,0l0,0L267.9,59C267.8,58.5,267.8,57.9,267.8,57.4z
			 M264.7,49.5c-0.9-1.3-1.9-2.6-3.1-3.8c-1.4-1.3-3.1-2.3-4.7-3.2l20.6-22.4c1.7,0.7,3.4,1.7,4.9,3.1c1.3,1.2,2.3,2.5,3.1,3.9
			L264.7,49.5z M254.6,41.6c-2.1-0.8-4.3-1.1-6.5-1.1l16.7-18.2c2.6-2.7,6.4-3.6,10.2-2.8L254.6,41.6z M241.6,72.2
			c-0.2,0.1-1,0.3-1.5,0.3c-1.9,0.1-3.4-1.4-3.5-3.2c0-0.4,0.1-1,0.2-1.3l2-8.7c2.6-0.2,5.4,0.7,7.7,2.8c2.3,2.1,3.5,4.9,3.5,7.5
			L241.6,72.2z M252.1,68.9c-0.2-3-1.5-6.1-4.1-8.5c-2.4-2.3-5.6-3.5-8.6-3.5l1.9-8.2c0.1-0.5,0.4-1.1,0.8-1.6
			c4.4-3.4,11.4-2.7,16.4,1.9c5.3,4.9,6.4,12.4,2.7,17c-0.3,0.1-0.5,0.3-0.8,0.4L252.1,68.9z M295.3,29.1l-3.6,4c0-0.5,0-1,0-1.5
			c-0.6-4.3-2.8-8.5-6.2-11.7c-3.8-3.5-8.8-5.4-13.6-5.3l3.6-3.9c1.8-1.9,4.4-3.1,7.2-3.2c3.6-0.1,7.4,1.3,10.4,4.1
			c2.8,2.6,4.5,5.9,4.9,9.2C298.2,24,297.3,26.9,295.3,29.1z"/>
	</g>
	<g>
		<path class="st3" d="M17.6,134.3c-0.1-0.1-0.2-0.2-0.4-0.3c-0.2,0-0.3,0-0.4,0.1c-0.6,0.5-1.4,0.8-2.4,0.8c-1.7,0-2.6-0.9-2.6-2.8
			v-10.3h5c0.3,0,0.5-0.2,0.5-0.5v-2.1c0-0.3-0.2-0.5-0.5-0.5h-5v-3.5c0-0.3-0.2-0.5-0.5-0.5H8.9c-0.3,0-0.5,0.2-0.5,0.5v3.5H5.6
			c-0.3,0-0.5,0.2-0.5,0.5v2.1c0,0.3,0.2,0.5,0.5,0.5h2.7v10.4c0,3.7,2.1,5.8,5.8,5.8c1.6,0,3.2-0.5,4.2-1.4
			c0.2-0.1,0.2-0.4,0.1-0.6L17.6,134.3z"/>
		<path class="st3" d="M33.9,118.6c-3,0-5.8,0.9-7.7,2.6c-0.2,0.2-0.2,0.4-0.1,0.6l1.1,1.8c0.1,0.1,0.2,0.2,0.4,0.2
			c0.1,0,0.3,0,0.4-0.1c1.4-1.3,3.6-2,5.7-2c3.1,0,4.6,1.4,4.6,4.3v0.6h-5.2c-6.5,0-7.5,3.5-7.5,5.6c0,3.5,2.8,5.8,7.1,5.8
			c2.4,0,4.4-0.7,5.7-2v1.4c0,0.3,0.2,0.5,0.5,0.5h2.3c0.3,0,0.5-0.2,0.5-0.5v-11.2C41.8,121.3,39,118.6,33.9,118.6z M38.3,129.5
			v2.4c-0.9,2.1-2.7,3.3-5.2,3.3c-2.6,0-4.1-1.1-4.1-2.9c0-1.2,0.4-2.7,4.1-2.7H38.3z"/>
		<path class="st3" d="M60.8,128.1l6.6-8.5c0.1-0.2,0.1-0.4,0.1-0.5c-0.1-0.2-0.3-0.3-0.4-0.3h-2.7c-0.2,0-0.3,0.1-0.4,0.2l-5,6.6
			l-5-6.6c-0.1-0.1-0.2-0.2-0.4-0.2h-2.8c-0.2,0-0.4,0.1-0.4,0.3s-0.1,0.4,0.1,0.5l6.6,8.5l-6.9,9c-0.1,0.2-0.1,0.4-0.1,0.5
			s0.3,0.3,0.4,0.3h2.8c0.2,0,0.3-0.1,0.4-0.2l5.4-7.1l5.4,7.1c0.1,0.1,0.2,0.2,0.4,0.2h2.8c0.2,0,0.4-0.1,0.4-0.3s0.1-0.4-0.1-0.5
			L60.8,128.1z"/>
		<path class="st3" d="M98.3,121.8c2,0,3.8,0.9,4.9,2.5c0.2,0.2,0.5,0.3,0.7,0.1l1.8-1.2c0.2-0.1,0.3-0.4,0.1-0.7
			c-1.5-2.5-4.2-3.8-7.5-3.8c-5.7,0-9.8,4.1-9.8,9.7c0,5.6,4.1,9.7,9.8,9.7c3.3,0,6-1.4,7.5-3.8c0.1-0.2,0.1-0.5-0.1-0.7l-1.8-1.2
			c-0.2-0.2-0.5-0.1-0.7,0.1c-1.4,2-3.4,2.4-4.9,2.4c-3.8,0-6.4-2.6-6.4-6.6C92,124.5,94.6,121.8,98.3,121.8z"/>
		<path class="st3" d="M121.7,118.6c-3,0-5.8,0.9-7.7,2.6c-0.2,0.2-0.2,0.4-0.1,0.6l1.1,1.8c0.1,0.1,0.2,0.2,0.4,0.2
			c0.1,0,0.3,0,0.4-0.1c1.4-1.3,3.6-2,5.7-2c3.1,0,4.6,1.4,4.6,4.3v0.6h-5.3c-6.5,0-7.5,3.5-7.5,5.6c0,3.5,2.8,5.8,7.1,5.8
			c2.4,0,4.4-0.7,5.7-2v1.4c0,0.3,0.2,0.5,0.5,0.5h2.3c0.3,0,0.5-0.2,0.5-0.5v-11.2C129.5,121.3,126.8,118.6,121.7,118.6z
			 M126.1,129.5v2.4c-0.9,2.1-2.7,3.3-5.3,3.3c-2.6,0-4.1-1.1-4.1-2.9c0-1.2,0.4-2.7,4.1-2.7H126.1z"/>
		<path class="st3" d="M143.3,111.3h-2.4c-0.3,0-0.5,0.2-0.5,0.5v25.5c0,0.3,0.2,0.5,0.5,0.5h2.4c0.3,0,0.5-0.2,0.5-0.5v-25.5
			C143.8,111.5,143.6,111.3,143.3,111.3z"/>
		<path class="st3" d="M162.8,121.8c2,0,3.8,0.9,4.9,2.5c0.2,0.2,0.5,0.3,0.7,0.1l1.8-1.2c0.2-0.1,0.3-0.4,0.1-0.7
			c-1.5-2.5-4.2-3.8-7.5-3.8c-5.7,0-9.8,4.1-9.8,9.7c0,5.6,4.1,9.7,9.8,9.7c3.3,0,6-1.4,7.5-3.8c0.1-0.2,0.1-0.5-0.1-0.7l-1.8-1.2
			c-0.2-0.2-0.5-0.1-0.7,0.1c-1.1,1.6-2.8,2.4-4.9,2.4c-3.8,0-6.4-2.6-6.4-6.6C156.4,124.5,159,121.8,162.8,121.8z"/>
		<path class="st3" d="M196.1,118.8h-2.4c-0.3,0-0.5,0.2-0.5,0.5v9.5c0,3.8-2.1,6.1-5.7,6.1c-3.2,0-4.9-1.8-4.9-5.3v-10.3
			c0-0.3-0.2-0.5-0.5-0.5h-2.4c-0.3,0-0.5,0.2-0.5,0.5v10.5c0,5.3,3,8.3,8.1,8.3c2.4,0,4.6-0.9,6-2.5v1.8c0,0.3,0.2,0.5,0.5,0.5h2.3
			c0.3,0,0.5-0.2,0.5-0.5v-18.1C196.6,119,196.4,118.8,196.1,118.8z"/>
		<path class="st3" d="M210.6,111.3h-2.4c-0.3,0-0.5,0.2-0.5,0.5v25.5c0,0.3,0.2,0.5,0.5,0.5h2.4c0.3,0,0.5-0.2,0.5-0.5v-25.5
			C211.1,111.5,210.9,111.3,210.6,111.3z"/>
		<path class="st3" d="M228.9,118.6c-3,0-5.8,0.9-7.7,2.6c-0.2,0.2-0.2,0.4-0.1,0.6l1.1,1.8c0.1,0.1,0.2,0.2,0.4,0.2
			c0.1,0,0.3,0,0.4-0.1c1.4-1.3,3.6-2,5.7-2c3.1,0,4.6,1.4,4.6,4.3v0.6h-5.3c-6.5,0-7.5,3.5-7.5,5.6c0,3.5,2.8,5.8,7.1,5.8
			c2.4,0,4.4-0.7,5.7-2v1.4c0,0.3,0.2,0.5,0.5,0.5h2.3c0.3,0,0.5-0.2,0.5-0.5v-11.2C236.8,121.3,234,118.6,228.9,118.6z
			 M233.3,129.5v2.4c-0.9,2.1-2.7,3.3-5.3,3.3c-2.6,0-4.1-1.1-4.1-2.9c0-1.2,0.4-2.7,4.1-2.7H233.3z"/>
		<path class="st3" d="M257.2,134.3c-0.1-0.1-0.2-0.2-0.4-0.3c-0.2,0-0.3,0-0.4,0.1c-0.6,0.5-1.4,0.8-2.4,0.8
			c-1.7,0-2.6-0.9-2.6-2.8v-10.3h5c0.3,0,0.5-0.2,0.5-0.5v-2.1c0-0.3-0.2-0.5-0.5-0.5h-5v-3.5c0-0.3-0.2-0.5-0.5-0.5h-2.4
			c-0.3,0-0.5,0.2-0.5,0.5v3.5h-2.7c-0.3,0-0.5,0.2-0.5,0.5v2.1c0,0.3,0.2,0.5,0.5,0.5h2.7v10.4c0,3.7,2.1,5.8,5.8,5.8
			c1.6,0,3.2-0.5,4.2-1.4c0.2-0.1,0.2-0.4,0.1-0.6L257.2,134.3z"/>
		<path class="st3" d="M274,118.6c-5.6,0-9.7,4.1-9.7,9.7c0,5.6,4.1,9.7,9.7,9.7c5.6,0,9.7-4.1,9.7-9.7
			C283.7,122.7,279.6,118.6,274,118.6z M280.2,128.3c0,3.9-2.6,6.6-6.2,6.6c-3.7,0-6.2-2.7-6.2-6.6c0-3.9,2.6-6.6,6.2-6.6
			C277.6,121.8,280.2,124.5,280.2,128.3z"/>
		<path class="st3" d="M302.4,118.6c-2.8,0-4.9,0.9-6.3,2.5v-1.8c0-0.3-0.2-0.5-0.5-0.5h-2.3c-0.3,0-0.5,0.2-0.5,0.5v18.1
			c0,0.3,0.2,0.5,0.5,0.5h2.4c0.3,0,0.5-0.2,0.5-0.5v-9.2c0-3.9,2-6.2,5.6-6.2c0.1,0,0.1,0,0.2,0c0.1,0,0.2,0,0.4,0
			c0.3,0,0.5-0.2,0.5-0.5v-2.4C302.9,118.8,302.7,118.6,302.4,118.6z"/>
	</g>
</g>
</svg>
